<?xml version="1.0" encoding="UTF-8" standalone="no"?>
<!-- Created with Inkscape (http://www.inkscape.org/) -->

<svg
   xmlns:dc="http://purl.org/dc/elements/1.1/"
   xmlns:cc="http://creativecommons.org/ns#"
   xmlns:rdf="http://www.w3.org/1999/02/22-rdf-syntax-ns#"
   xmlns:svg="http://www.w3.org/2000/svg"
   xmlns="http://www.w3.org/2000/svg"
   xmlns:sodipodi="http://sodipodi.sourceforge.net/DTD/sodipodi-0.dtd"
   xmlns:inkscape="http://www.inkscape.org/namespaces/inkscape"
   width="50"
   height="50"
   viewBox="0 0 13.229167 13.229166"
   version="1.1"
   id="svg8"
   inkscape:version="0.92.0 r15299"
   sodipodi:docname="es.svg">
  <defs
     id="defs2" />
  <sodipodi:namedview
     id="base"
     pagecolor="#ffffff"
     bordercolor="#666666"
     borderopacity="1.0"
     inkscape:pageopacity="0.0"
     inkscape:pageshadow="2"
     inkscape:zoom="15.839192"
     inkscape:cx="18.823676"
     inkscape:cy="31.69462"
     inkscape:document-units="mm"
     inkscape:current-layer="layer1"
     showgrid="false"
     inkscape:pagecheckerboard="true"
     units="px"
     inkscape:window-width="1920"
     inkscape:window-height="1001"
     inkscape:window-x="-9"
     inkscape:window-y="-9"
     inkscape:window-maximized="1" />
  <metadata
     id="metadata5">
    <rdf:RDF>
      <cc:Work
         rdf:about="">
        <dc:format>image/svg+xml</dc:format>
        <dc:type
           rdf:resource="http://purl.org/dc/dcmitype/StillImage" />
        <dc:title></dc:title>
      </cc:Work>
    </rdf:RDF>
  </metadata>
  <g
     inkscape:label="Layer 1"
     inkscape:groupmode="layer"
     id="layer1"
     transform="translate(-23.022209,-30.981884)">
    <path
       id="path21"
       style="fill:#d01a91;stroke-width:0.33093718"
       d="m 28.389591,31.519894 c -0.812732,-0.114748 -3.905785,2.303476 -3.932095,3.165195 -0.01318,0.431279 0.28094,0.273956 2.364242,-1.264168 1.397955,-1.032126 1.934336,-1.614017 1.698398,-1.843071 -0.03232,-0.03138 -0.07637,-0.05031 -0.130545,-0.05796 z m 6.792934,2.0284 c -0.624295,-7.36e-4 -2.501505,1.427714 -5.429755,4.139589 -2.721883,2.520763 -4.536916,3.349497 -5.412044,2.471016 -0.305252,-0.306421 -0.128377,-0.591859 0.780646,-1.257798 2.318259,-1.698323 4.048464,-3.547321 3.831726,-4.095647 -0.614694,-1.55512 -4.271774,0.288627 -5.517003,3.616728 l -0.231569,0.619665 c -3.43e-4,0.0015 4.18e-4,0.0022 0,0.0038 -2.16e-4,8.16e-4 -4.4e-4,0.0018 -6.55e-4,0.0026 -0.0013,0.0046 -0.002,0.0088 -0.0032,0.01338 -0.0013,0.0048 -0.0025,0.0099 -0.004,0.01465 -0.0013,0.0047 -0.0028,0.0093 -0.004,0.01401 -0.0013,0.0047 -0.0026,0.0093 -0.004,0.01401 -0.0013,0.0044 -0.0022,0.0085 -0.0032,0.01273 -0.0013,0.0045 -0.0026,0.0088 -0.004,0.01338 -10e-4,0.0039 -0.0022,0.0081 -0.0033,0.01208 -0.0012,0.0046 -0.002,0.0088 -0.0032,0.01338 -10e-4,0.0038 -0.0024,0.0077 -0.0032,0.01146 -0.0012,0.0046 -0.0022,0.0087 -0.0032,0.01338 -0.0012,0.0048 -0.0022,0.0098 -0.0033,0.01466 -0.0013,0.0048 -0.0026,0.0099 -0.004,0.01464 -0.0012,0.0045 -0.0023,0.0083 -0.0033,0.01273 -0.001,0.0047 -0.0022,0.0093 -0.0032,0.01401 -0.001,0.0045 -0.0023,0.0088 -0.0032,0.01338 -0.0012,0.0051 -0.0019,0.01039 -0.0033,0.01528 -0.0012,0.0042 -0.0028,0.0085 -0.004,0.01273 -9.44e-4,0.0037 -0.0019,0.0072 -0.0026,0.01084 -8.34e-4,0.004 -0.0012,0.008 -0.002,0.01208 -8.16e-4,0.0046 -0.0019,0.0095 -0.0026,0.01401 -8.06e-4,0.0044 -0.0016,0.0084 -0.002,0.01273 -7.8e-4,0.0048 -0.0019,0.0092 -0.0026,0.01401 -7.07e-4,0.0042 -0.0016,0.0085 -0.002,0.01273 -6.35e-4,0.0052 -0.0012,0.01007 -0.0019,0.01528 -5.93e-4,0.004 -0.0016,0.008 -0.002,0.01208 -4.61e-4,0.0045 -8.71e-4,0.0088 -0.0013,0.01337 -4.04e-4,0.0045 -3.23e-4,0.009 -6.56e-4,0.01337 -3.19e-4,0.0046 -4.22e-4,0.0087 -6.55e-4,0.01338 -2.12e-4,0.0046 -4.4e-4,0.0095 -6.55e-4,0.01401 -1.58e-4,0.0037 -7.15e-4,0.0072 -6.55e-4,0.01084 7.1e-5,0.0042 5.24e-4,0.0085 6.55e-4,0.01273 2.04e-4,0.0046 4.14e-4,0.0088 6.55e-4,0.01338 2.49e-4,0.0046 3.73e-4,0.0095 6.55e-4,0.01401 3.39e-4,0.0054 4.98e-4,0.01109 6.56e-4,0.01656 5.5e-5,0.0049 6.44e-4,0.0098 6.55e-4,0.01464 5e-6,0.0048 -7e-6,0.0099 0,0.01464 6e-6,0.0051 -9e-6,0.0097 0,0.01465 8e-6,0.0051 -1.1e-5,0.01018 0,0.01528 8e-6,0.0051 -1.3e-5,0.01008 0,0.01528 1.1e-5,0.0052 -1.5e-5,0.01007 0,0.01528 1.3e-5,0.0052 -1.8e-5,0.01072 0,0.01592 1.6e-5,0.0052 -2.1e-5,0.01007 0,0.01528 2e-5,0.0049 -2.4e-5,0.01039 0,0.01528 2.4e-5,0.0049 -3e-5,0.0098 0,0.01465 2.9e-5,0.0049 -3.5e-5,0.0098 0,0.01464 3.3e-5,0.0047 -4.2e-5,0.01 0,0.01464 4.3e-5,0.0047 6.08e-4,0.0092 6.55e-4,0.01401 4.9e-5,0.0047 -6e-5,0.0093 0,0.01401 5.8e-5,0.0047 -7.4e-5,0.0093 0,0.01401 7.2e-5,0.0045 5.71e-4,0.0088 6.54e-4,0.01337 8.7e-5,0.0046 -10e-5,0.0095 0,0.01401 1.02e-4,0.0046 -1.25e-4,0.0087 0,0.01338 1.25e-4,0.0046 5.11e-4,0.0088 6.55e-4,0.01338 1.47e-4,0.0045 4.76e-4,0.009 6.55e-4,0.01337 1.73e-4,0.0044 4.44e-4,0.0084 6.56e-4,0.01274 2.13e-4,0.0044 4.08e-4,0.0084 6.55e-4,0.01273 2.5e-4,0.0044 3.59e-4,0.009 6.54e-4,0.01338 3.22e-4,0.0047 4.1e-4,0.0092 6.55e-4,0.01401 2.39e-4,0.0044 0.001,0.009 0.0013,0.01338 2.86e-4,0.0042 3.19e-4,0.0086 6.54e-4,0.01273 3.7e-4,0.0047 10e-4,0.0087 0.0013,0.01338 2.93e-4,0.0042 3.1e-4,0.0085 6.55e-4,0.01274 3.34e-4,0.004 8.9e-4,0.008 0.0013,0.01208 3.96e-4,0.0037 8.64e-4,0.0078 0.0013,0.01146 4.72e-4,0.0035 7.52e-4,0.0073 0.0013,0.01084 6.14e-4,0.0038 0.0014,0.0077 0.0019,0.01146 6.38e-4,0.0039 0.0014,0.0075 0.002,0.01147 5.99e-4,0.0037 7.15e-4,0.0072 0.0013,0.01084 5.39e-4,0.0032 0.0013,0.0064 0.002,0.0097 6.18e-4,0.0029 0.0012,0.0066 0.0019,0.0097 8e-4,0.0031 0.0018,0.0058 0.0026,0.0088 0.001,0.0035 0.0023,0.0073 0.0033,0.01084 7.97e-4,0.0028 10e-4,0.0055 0.002,0.0082 7.11e-4,0.0024 0.0019,0.0048 0.0026,0.0071 8.91e-4,0.0025 0.0017,0.0046 0.0026,0.0071 8.47e-4,0.0021 0.0018,0.0044 0.0026,0.0064 0.0012,0.0027 0.0022,0.0055 0.0032,0.0083 0.0013,0.0031 0.0023,0.0057 0.0032,0.0088 9.36e-4,0.0027 0.0025,0.0054 0.0032,0.0082 5.3e-5,1.92e-4 1.8e-5,4.25e-4 0,6.53e-4 l 0.298483,0.389122 c 1.634078,1.32082 3.791863,0.749061 6.485924,-1.717612 0.956775,-0.87602 1.418169,-1.105194 1.72595,-0.857213 0.231036,0.186148 1.191426,0.42715 2.134641,0.5356 0.943214,0.108451 1.714798,0.316454 1.714798,0.461722 0,0.498824 -2.184319,2.263194 -3.694622,2.984326 -0.954842,0.455914 -2.053114,0.702693 -2.982199,0.670614 -1.427282,-0.04937 -1.566037,0.362084 -0.208594,0.618379 1.873774,0.353783 4.544469,-0.790581 6.649269,-2.849947 1.498972,-1.466615 1.140127,-2.179162 -1.359244,-2.700923 -1.154569,-0.241025 -2.099217,-0.569694 -2.099217,-0.729842 0,-0.160145 0.566789,-0.571926 1.25953,-0.915167 1.528287,-0.757237 2.582406,-1.828571 2.274372,-2.312437 -0.03747,-0.05885 -0.101062,-0.08841 -0.190243,-0.08852 z m -7.86288,2.147491 c 0.03086,7.82e-4 0.05473,0.0079 0.07019,0.02292 0.114847,0.111495 -0.310964,0.633983 -0.945959,1.160995 -1.198584,0.994766 -1.65838,1.188118 -1.65838,0.697361 0,-0.390804 2.07133,-1.892967 2.534147,-1.881283 z"
       inkscape:connector-curvature="0" />
  </g>
</svg>
